<svg id="Layer_1" data-name="Layer 1" xmlns="http://www.w3.org/2000/svg" viewBox="0 0 340.32 69.31"><defs><style>.cls-1{fill:#ea7024;}.cls-1,.cls-2{fill-rule:evenodd;}.cls-2{fill:#f2a62a;}</style></defs><title>babelfish_font</title><path class="cls-1" d="M216.68,146.59h12.1v66.83h-12.1V146.59h0Zm-16.47,36.7a12.22,12.22,0,0,0-4.72-6.57,13.72,13.72,0,0,0-8.18-2.53,14.47,14.47,0,0,0-8.86,2.84,15.9,15.9,0,0,0-4.43,6.25h26.2Zm12.15,9.53H173.48A13,13,0,0,0,178,201a14.07,14.07,0,0,0,9.32,3A16.15,16.15,0,0,0,199,199.27l10.19,4.79a24.15,24.15,0,0,1-9.14,8,28.55,28.55,0,0,1-12.63,2.59q-11.35,0-18.47-7.15a24.36,24.36,0,0,1-7.14-17.92c0-7.37,2.38-13.46,7.11-18.33A23.92,23.92,0,0,1,186.73,164q11.39,0,18.53,7.29t7.14,19.26l0,2.31h0ZM133,175.13a12.63,12.63,0,0,0-9.48,3.9,14,14,0,0,0-3.77,10.18,14.43,14.43,0,0,0,3.77,10.39,12.53,12.53,0,0,0,9.48,4,12.3,12.3,0,0,0,9.33-4,15.81,15.81,0,0,0,.06-20.45,12.32,12.32,0,0,0-9.39-4h0Zm-12.72-28.54v23.93a22.9,22.9,0,0,1,7.09-4.92,20.51,20.51,0,0,1,8.15-1.65,21.09,21.09,0,0,1,16,7.14q6.6,7.15,6.6,18.3,0,10.78-6.82,18a21.51,21.51,0,0,1-16.17,7.25,20.2,20.2,0,0,1-7.76-1.48,23.86,23.86,0,0,1-7.14-4.85v5.1h-12V146.59h12ZM78.65,175.13a12.26,12.26,0,0,0-9.35,4,14.26,14.26,0,0,0-3.72,10.16,14.42,14.42,0,0,0,3.78,10.29,12.3,12.3,0,0,0,9.33,4,12.52,12.52,0,0,0,9.48-4,14.43,14.43,0,0,0,3.77-10.39A14,14,0,0,0,88.18,179a12.68,12.68,0,0,0-9.53-3.9h0Zm12.72-9.94h12.05v48.22H91.38v-5.1a23.76,23.76,0,0,1-7.11,4.85,20.13,20.13,0,0,1-7.74,1.48,21.51,21.51,0,0,1-16.17-7.25q-6.83-7.24-6.82-18,0-11.16,6.59-18.3a21.09,21.09,0,0,1,16-7.14,20.51,20.51,0,0,1,8.15,1.65,22.38,22.38,0,0,1,7,4.92v-5.32h0ZM22.26,184.87v16.71h3.1q7.69,0,10.39-2A6.58,6.58,0,0,0,38.43,194a8,8,0,0,0-3.15-6.66c-2.1-1.62-5.58-2.44-10.47-2.44H22.26Zm0-24.81V173.8H25q4.51,0,6.72-1.91a6.49,6.49,0,0,0,2.19-5.19,6.07,6.07,0,0,0-2.09-4.86c-1.38-1.2-3.49-1.78-6.34-1.78H22.26ZM9.84,213.41V148.22H20.08q8.92,0,13,1.16a17.5,17.5,0,0,1,9.32,5.75,15.22,15.22,0,0,1,3.45,9.94,14.43,14.43,0,0,1-1.57,6.75,17.12,17.12,0,0,1-5.11,5.7,20.5,20.5,0,0,1,8.68,7,17.68,17.68,0,0,1,2.75,9.91,18.47,18.47,0,0,1-2.84,10,18.2,18.2,0,0,1-7.31,6.76c-3,1.5-7.11,2.24-12.37,2.24H9.84Z" transform="translate(-9.84 -145.35)"/><path class="cls-2" d="M308.11,146.59h6.2v27.26a26.32,26.32,0,0,1,8.29-7.43,20.24,20.24,0,0,1,9.8-2.47A17.12,17.12,0,0,1,342,166.7a16.34,16.34,0,0,1,6.17,7.38q2,4.63,2,14.51v24.82H344v-23c0-5.55-.21-9.26-0.67-11.12a12.63,12.63,0,0,0-4.19-7.2,12.42,12.42,0,0,0-8-2.42,15.28,15.28,0,0,0-10.07,3.72,17.5,17.5,0,0,0-5.87,9.23q-0.88,3.54-.89,13.11v17.68h-6.2V146.59h0Zm-5.53,23.88-4,4.13q-5-4.83-9.71-4.84a7.31,7.31,0,0,0-5.16,2,6.17,6.17,0,0,0-2.15,4.66,6.93,6.93,0,0,0,1.77,4.48c1.18,1.44,3.66,3.15,7.44,5.1q6.92,3.59,9.39,6.91a12.54,12.54,0,0,1,2.45,7.58,13.62,13.62,0,0,1-4.17,10.06A14.22,14.22,0,0,1,288,214.65a18.17,18.17,0,0,1-8-1.81,17.45,17.45,0,0,1-6.28-5l3.9-4.43q4.74,5.36,10.06,5.36a9,9,0,0,0,6.34-2.39,7.39,7.39,0,0,0,2.62-5.63A7.19,7.19,0,0,0,295,196c-1.16-1.36-3.75-3.09-7.8-5.14-4.34-2.25-7.29-4.46-8.86-6.66a12.55,12.55,0,0,1-2.34-7.49,12.17,12.17,0,0,1,3.74-9.12A13.07,13.07,0,0,1,289.2,164q6.65,0,13.39,6.52h0Zm-39.22-5.28h6.25v48.22h-6.25V165.19h0Zm3.1-19.85a5.14,5.14,0,0,1,5.13,5.14,4.89,4.89,0,0,1-1.5,3.58,5.08,5.08,0,0,1-7.23,0,4.89,4.89,0,0,1-1.5-3.58,5.14,5.14,0,0,1,5.1-5.14h0Zm-7.88,1.24v6.06a15.52,15.52,0,0,0-5.85-1.45,5.69,5.69,0,0,0-3,.73,3.23,3.23,0,0,0-1.51,1.68,22.82,22.82,0,0,0-.32,5.08v6.5H258v5.32h-10.1v42.9h-6.22v-42.9h-6.34v-5.32h6.34v-7.53q0-5.17,1-7.4a7.73,7.73,0,0,1,3.24-3.57,10.74,10.74,0,0,1,5.52-1.35A26.11,26.11,0,0,1,258.59,146.59Z" transform="translate(-9.84 -145.35)"/></svg>