<svg id="Layer_1" data-name="Layer 1" xmlns="http://www.w3.org/2000/svg" viewBox="0 0 340.32 250.15"><defs><style>.cls-1{fill:#231f20;}.cls-1,.cls-2{fill-rule:evenodd;}.cls-2{fill:#58595b;}</style></defs><title>babelfish_black</title><path class="cls-1" d="M146.61,81.3c2.79,18.28,4.7,36.85,6.77,55.34,1.06,9.48,2.47,18.42,4.28,27.46,1.47,7.29,1.49,12.35,8.54,16.49-34.26,14.52-31.92,11.87-55-10.42L80.52,140.54c-6.51-6.29-5.56-8-11.35-.8l-6.75,8.34c-7.76,9.6-6.82,10-6.82-2.35V98.82c0-12-1.51-13.19,6.53-3.24l6.19,7.65c5.59,6.91,4.39,7.79,10.85,1.55L107,77.9c18.6-18,32.58-42.75,39.61,3.41h0ZM108.75,94.43a14,14,0,1,0,9.87,4.09,13.91,13.91,0,0,0-9.87-4.09h0Zm6.13,7.83a8.67,8.67,0,1,0,2.54,6.13A8.64,8.64,0,0,0,114.88,102.26Z" transform="translate(-9.84 -54.92)"/><path class="cls-2" d="M146.61,81.3c2.79,18.28,4.7,36.85,6.77,55.34,1.06,9.48,2.47,18.42,4.28,27.46,1.47,7.29,1.49,12.35,8.54,16.49-20,8.48-27.53,11.1-34.92,7.38V55.51C137.91,53,143.12,58.37,146.61,81.3Z" transform="translate(-9.84 -54.92)"/><path class="cls-2" d="M287.61,121.87c3.76,3.84,8.52,8.67,12.35,12.51,5.19,5.19,5.88,5.31-1.45,9s-16.15,4.44-23-.21a34.4,34.4,0,0,1-5.84-5.22C275.34,132.54,281.52,127.26,287.61,121.87Z" transform="translate(-9.84 -54.92)"/><path class="cls-1" d="M166.19,180.59c5.41-2.59,6.65-15.39,7.7-25.14,1.59-14.74,3.08-29.48,4.73-44.21a77.41,77.41,0,0,1,2.1-12.2q-0.49-4-1.06-8.07C177.6,76.48,175,63.4,171,61.66c-2.48.26-4.25,2.69-5.44,5.84a54.19,54.19,0,0,0-2.46,9.58c-2.67,15.05-4,30.53-5.63,45.81-0.78,7.4-1.9,14.74-3.06,22.09,0.89,6.47,2,12.77,3.24,19.12,1.46,7.29,1.49,12.35,8.54,16.49h0Zm6.75-118.71L171,61.66a4.8,4.8,0,0,1,1.94.22h0ZM234,104.15c-1.41,5.53-2.85,11.06-4,16.65-2,9.83-2.95,20-5.19,29.81-1.51,6.58-2.95,10.86-7.61,14.46-4.44-1.61-7.65-8.26-10.06-17.24,1.64-16.12,3.35-37.72,6.82-53,1.48-6.49,3.31-13.44,5.73-14.83a4.62,4.62,0,0,1,3.49-.29A42,42,0,0,1,234,104.15h0Zm66.45,5.8c5.19-5.19,6.1-5.78-1.45-9-17.83-7.61-28.19,2-33.74,13.57a86.63,86.63,0,0,0-5.79,17.28,17.23,17.23,0,0,0,7.78,8.47l0.06,0C269,139.37,290.62,119.79,300.46,109.94Z" transform="translate(-9.84 -54.92)"/><path class="cls-2" d="M217.24,165.07a26.23,26.23,0,0,1-3.44,2.22,86,86,0,0,1-8.44,3.93c-6,2.47-9.23,3.5-11.8.22s-4-8-5-12.81c-4.86-22.26-5.68-45.17-8.89-67.67C177.6,76.48,175,63.4,171,61.66c14.37,1.47,22.81,5.57,26.12,16.51C201.29,92,201.66,159.41,217.24,165.07Z" transform="translate(-9.84 -54.92)"/><path class="cls-2" d="M267.26,140.27c-4.76,3-15.56,10.84-21,8.46-4.65-2-5.08-8.44-6.39-14-1.88-8-3.9-15.79-4.91-24.13C233.56,99,231.1,90,223.23,79.75c8.23,3.68,14.53,6.39,19.42,10.47,8.89,7.41,10.09,19.61,13.23,30.19C258.89,130.57,259.47,135.7,267.26,140.27Z" transform="translate(-9.84 -54.92)"/><path class="cls-1" d="M216.68,237h12.1v66.82h-12.1V237h0ZM200.21,273.7a12.22,12.22,0,0,0-4.72-6.57,13.72,13.72,0,0,0-8.18-2.53,14.47,14.47,0,0,0-8.86,2.84A15.9,15.9,0,0,0,174,273.7h26.2Zm12.15,9.53H173.48A13,13,0,0,0,178,291.4a14.07,14.07,0,0,0,9.32,3A16.15,16.15,0,0,0,199,289.69l10.19,4.79a24.14,24.14,0,0,1-9.14,8,28.55,28.55,0,0,1-12.63,2.59q-11.35,0-18.47-7.15A24.36,24.36,0,0,1,161.79,280c0-7.37,2.38-13.46,7.11-18.33a23.92,23.92,0,0,1,17.83-7.29q11.39,0,18.53,7.29t7.14,19.26l0,2.31h0ZM133,265.55a12.63,12.63,0,0,0-9.48,3.9,14,14,0,0,0-3.77,10.18A14.43,14.43,0,0,0,123.55,290a12.53,12.53,0,0,0,9.48,4,12.3,12.3,0,0,0,9.33-4,15.81,15.81,0,0,0,.06-20.45,12.32,12.32,0,0,0-9.39-4h0ZM120.32,237v23.93a22.9,22.9,0,0,1,7.09-4.92,20.51,20.51,0,0,1,8.15-1.65,21.09,21.09,0,0,1,16,7.14q6.6,7.15,6.6,18.3,0,10.78-6.82,18a21.51,21.51,0,0,1-16.17,7.25,20.2,20.2,0,0,1-7.76-1.48,23.86,23.86,0,0,1-7.14-4.85v5.1h-12V237h12ZM78.65,265.55a12.26,12.26,0,0,0-9.35,4,14.27,14.27,0,0,0-3.72,10.16A14.42,14.42,0,0,0,69.37,290a12.3,12.3,0,0,0,9.33,4,12.52,12.52,0,0,0,9.48-4,14.43,14.43,0,0,0,3.77-10.39,14,14,0,0,0-3.77-10.18,12.68,12.68,0,0,0-9.53-3.9h0Zm12.72-9.94h12.05v48.22H91.38v-5.1a23.76,23.76,0,0,1-7.11,4.85,20.13,20.13,0,0,1-7.74,1.48,21.51,21.51,0,0,1-16.17-7.25q-6.83-7.24-6.82-18,0-11.16,6.59-18.3a21.09,21.09,0,0,1,16-7.14A20.51,20.51,0,0,1,84.33,256a22.38,22.38,0,0,1,7,4.92v-5.32h0ZM22.26,275.29V292h3.1q7.69,0,10.39-2a6.58,6.58,0,0,0,2.68-5.67,8,8,0,0,0-3.15-6.66c-2.1-1.62-5.58-2.44-10.47-2.44H22.26Zm0-24.81v13.73H25q4.51,0,6.72-1.91a6.49,6.49,0,0,0,2.19-5.19,6.07,6.07,0,0,0-2.09-4.86c-1.38-1.2-3.49-1.78-6.34-1.78H22.26ZM9.84,303.83V238.64H20.08q8.92,0,13,1.16a17.5,17.5,0,0,1,9.32,5.75,15.22,15.22,0,0,1,3.45,9.94,14.43,14.43,0,0,1-1.57,6.75,17.11,17.11,0,0,1-5.11,5.7,20.5,20.5,0,0,1,8.68,7,17.68,17.68,0,0,1,2.75,9.91,18.47,18.47,0,0,1-2.84,10,18.2,18.2,0,0,1-7.31,6.76c-3,1.5-7.11,2.24-12.37,2.24H9.84Z" transform="translate(-9.84 -54.92)"/><path class="cls-2" d="M308.11,237h6.2v27.26a26.32,26.32,0,0,1,8.29-7.43,20.24,20.24,0,0,1,9.8-2.47,17.12,17.12,0,0,1,9.59,2.75,16.34,16.34,0,0,1,6.17,7.38q2,4.63,2,14.51v24.82H344v-23c0-5.55-.21-9.26-0.67-11.12a12.63,12.63,0,0,0-4.19-7.2,12.42,12.42,0,0,0-8-2.42,15.28,15.28,0,0,0-10.07,3.72A17.5,17.5,0,0,0,315.2,273q-0.88,3.54-.89,13.11v17.68h-6.2V237h0Zm-5.53,23.88-4,4.13q-5-4.83-9.71-4.84a7.31,7.31,0,0,0-5.16,2,6.17,6.17,0,0,0-2.15,4.66,6.93,6.93,0,0,0,1.77,4.48c1.18,1.44,3.66,3.15,7.44,5.1q6.92,3.59,9.39,6.91a12.54,12.54,0,0,1,2.45,7.58A13.62,13.62,0,0,1,298.46,301,14.22,14.22,0,0,1,288,305.07a18.17,18.17,0,0,1-8-1.81,17.45,17.45,0,0,1-6.28-5l3.9-4.43q4.74,5.36,10.06,5.36a9,9,0,0,0,6.34-2.39,7.39,7.39,0,0,0,2.62-5.63,7.19,7.19,0,0,0-1.72-4.73c-1.16-1.36-3.75-3.09-7.8-5.14-4.34-2.25-7.29-4.46-8.86-6.66a12.55,12.55,0,0,1-2.34-7.49,12.17,12.17,0,0,1,3.74-9.12,13.07,13.07,0,0,1,9.47-3.65q6.65,0,13.39,6.52h0Zm-39.22-5.28h6.25v48.22h-6.25V255.61h0Zm3.1-19.85a5.14,5.14,0,0,1,5.13,5.14,4.89,4.89,0,0,1-1.5,3.58,5.08,5.08,0,0,1-7.23,0,4.89,4.89,0,0,1-1.5-3.58,5.14,5.14,0,0,1,5.1-5.14h0ZM258.59,237v6.06a15.52,15.52,0,0,0-5.85-1.45,5.69,5.69,0,0,0-3,.73,3.23,3.23,0,0,0-1.51,1.68,22.82,22.82,0,0,0-.32,5.08v6.5H258v5.32h-10.1v42.9h-6.22v-42.9h-6.34v-5.32h6.34v-7.53q0-5.17,1-7.4a7.73,7.73,0,0,1,3.24-3.57,10.74,10.74,0,0,1,5.52-1.35A26.11,26.11,0,0,1,258.59,237Z" transform="translate(-9.84 -54.92)"/></svg>