<svg id="Layer_1" data-name="Layer 1" xmlns="http://www.w3.org/2000/svg" viewBox="0 0 279.84 61.49"><defs><style>.cls-1{fill:#ea7024;}.cls-1,.cls-2{fill-rule:evenodd;}.cls-2{fill:#f2a62a;}</style></defs><title>babelfish_left</title><path class="cls-1" d="M81.68,161.3c1.27,8.34,2.14,16.82,3.09,25.26,0.48,4.33,1.13,8.41,2,12.54,0.67,3.33.68,5.64,3.9,7.53C75,213.25,76,212,65.51,201.87l-14-13.53c-3-2.87-2.54-3.64-5.18-.36l-3.08,3.81c-3.55,4.38-3.11,4.59-3.11-1.07V169.29c0-5.48-.69-6,3-1.48l2.83,3.49c2.55,3.16,2,3.55,5,.71l12.7-12.27c8.49-8.2,14.88-19.52,18.08,1.55h0Zm-17.28,6a6.37,6.37,0,1,0,4.51,1.87,6.35,6.35,0,0,0-4.51-1.87h0Zm2.8,3.58a4,4,0,1,0,1.16,2.8A3.94,3.94,0,0,0,67.19,170.86Z" transform="translate(-40.08 -149.25)"/><path class="cls-2" d="M81.68,161.3c1.27,8.34,2.14,16.82,3.09,25.26,0.48,4.33,1.13,8.41,2,12.54,0.67,3.33.68,5.64,3.9,7.53-9.13,3.87-12.57,5.07-15.94,3.37V149.52C77.71,148.35,80.09,150.83,81.68,161.3Z" transform="translate(-40.08 -149.25)"/><path class="cls-2" d="M146.05,179.82c1.71,1.75,3.89,4,5.64,5.71,2.37,2.37,2.68,2.42-.66,4.11s-7.37,2-10.51-.1a15.72,15.72,0,0,1-2.67-2.38C140.45,184.69,143.27,182.28,146.05,179.82Z" transform="translate(-40.08 -149.25)"/><path class="cls-1" d="M90.62,206.62c2.47-1.18,3-7,3.51-11.48,0.73-6.73,1.4-13.46,2.16-20.18a35.36,35.36,0,0,1,1-5.57q-0.22-1.85-.48-3.68c-0.94-6.61-2.14-12.59-4-13.38-1.13.12-1.94,1.23-2.49,2.67a24.76,24.76,0,0,0-1.12,4.37c-1.22,6.87-1.83,13.94-2.57,20.92-0.36,3.38-.87,6.73-1.4,10.08,0.41,3,.9,5.83,1.48,8.73,0.67,3.33.68,5.64,3.9,7.53h0Zm3.08-54.2-0.88-.1a2.19,2.19,0,0,1,.88.1h0Zm27.88,19.3c-0.64,2.52-1.3,5-1.81,7.6-0.89,4.49-1.34,9.13-2.37,13.61-0.69,3-1.35,5-3.47,6.6-2-.74-3.49-3.77-4.59-7.87,0.75-7.36,1.53-17.22,3.11-24.19,0.67-3,1.51-6.13,2.62-6.77a2.11,2.11,0,0,1,1.59-.13,19.18,19.18,0,0,1,4.92,11.14h0Zm30.34,2.65c2.37-2.37,2.78-2.64-.66-4.11-8.14-3.48-12.87.92-15.4,6.2a39.54,39.54,0,0,0-2.64,7.89,7.87,7.87,0,0,0,3.55,3.87l0,0C137.55,187.81,147.42,178.87,151.92,174.37Z" transform="translate(-40.08 -149.25)"/><path class="cls-2" d="M113.93,199.54a12,12,0,0,1-1.57,1,39.2,39.2,0,0,1-3.85,1.79c-2.72,1.13-4.21,1.6-5.39.1a15,15,0,0,1-2.29-5.85c-2.22-10.16-2.59-20.62-4.06-30.89-0.94-6.61-2.14-12.59-4-13.38,6.56,0.67,10.41,2.54,11.92,7.54C106.64,166.16,106.81,197,113.93,199.54Z" transform="translate(-40.08 -149.25)"/><path class="cls-2" d="M136.76,188.22c-2.17,1.39-7.1,4.95-9.58,3.86-2.12-.93-2.32-3.85-2.92-6.4a101.39,101.39,0,0,1-2.24-11c-0.64-5.28-1.77-9.39-5.36-14.08,3.76,1.68,6.63,2.92,8.87,4.78,4.06,3.38,4.61,9,6,13.78C132.94,183.79,133.2,186.13,136.76,188.22Z" transform="translate(-40.08 -149.25)"/><path class="cls-1" d="M259,162.92h5.52v30.51H259V162.92h0Zm-7.52,16.75a5.58,5.58,0,0,0-2.15-3,6.26,6.26,0,0,0-3.74-1.15,6.61,6.61,0,0,0-4,1.3,7.26,7.26,0,0,0-2,2.85h12ZM257,184H239.26a5.92,5.92,0,0,0,2.06,3.73,6.42,6.42,0,0,0,4.25,1.39A7.38,7.38,0,0,0,250.9,187l4.65,2.19a11,11,0,0,1-4.17,3.65,13,13,0,0,1-5.77,1.18,11.39,11.39,0,0,1-8.43-3.27,11.12,11.12,0,0,1-3.26-8.18,11.52,11.52,0,0,1,3.25-8.37,10.92,10.92,0,0,1,8.14-3.33,11.33,11.33,0,0,1,8.46,3.33A12.05,12.05,0,0,1,257,183l0,1.06h0ZM220.8,176a5.76,5.76,0,0,0-4.33,1.78,6.4,6.4,0,0,0-1.72,4.65,6.59,6.59,0,0,0,1.72,4.74,5.72,5.72,0,0,0,4.33,1.82,5.61,5.61,0,0,0,4.26-1.84,7.22,7.22,0,0,0,0-9.34A5.62,5.62,0,0,0,220.8,176h0Zm-5.81-13v10.92a10.46,10.46,0,0,1,3.24-2.24,9.36,9.36,0,0,1,3.72-.75,9.63,9.63,0,0,1,7.33,3.26,11.82,11.82,0,0,1,3,8.36,11.52,11.52,0,0,1-3.11,8.22,9.82,9.82,0,0,1-7.38,3.31,9.22,9.22,0,0,1-3.54-.68A10.89,10.89,0,0,1,215,191.1v2.33h-5.48V162.92H215Zm-19,13a5.6,5.6,0,0,0-4.27,1.81,6.51,6.51,0,0,0-1.7,4.64,6.58,6.58,0,0,0,1.73,4.7,5.62,5.62,0,0,0,4.26,1.84,5.72,5.72,0,0,0,4.33-1.82,6.59,6.59,0,0,0,1.72-4.74,6.4,6.4,0,0,0-1.72-4.65A5.79,5.79,0,0,0,196,176h0Zm5.81-4.54h5.5v22h-5.5V191.1a10.84,10.84,0,0,1-3.25,2.22A9.19,9.19,0,0,1,195,194a9.82,9.82,0,0,1-7.38-3.31,11.52,11.52,0,0,1-3.11-8.22,11.82,11.82,0,0,1,3-8.36,9.63,9.63,0,0,1,7.33-3.26,9.36,9.36,0,0,1,3.72.75,10.21,10.21,0,0,1,3.22,2.24v-2.43h0Zm-31.55,9V188h1.42q3.51,0,4.74-.89a3,3,0,0,0,1.22-2.59,3.63,3.63,0,0,0-1.44-3c-1-.74-2.55-1.11-4.78-1.11h-1.17Zm0-11.32v6.27h1.23a4.59,4.59,0,0,0,3.07-.87,3,3,0,0,0,1-2.37,2.77,2.77,0,0,0-1-2.22,4.33,4.33,0,0,0-2.89-.81h-1.45Zm-5.67,24.36V163.67h4.67a24,24,0,0,1,5.95.53,8,8,0,0,1,4.25,2.62,7,7,0,0,1,1.57,4.54,6.59,6.59,0,0,1-.72,3.08,7.81,7.81,0,0,1-2.33,2.6,9.36,9.36,0,0,1,4,3.18,8.07,8.07,0,0,1,1.26,4.52,8.43,8.43,0,0,1-1.3,4.57,8.31,8.31,0,0,1-3.34,3.09,12.81,12.81,0,0,1-5.65,1h-8.33Z" transform="translate(-40.08 -149.25)"/><path class="cls-2" d="M300.72,162.92h2.83v12.44a12,12,0,0,1,3.78-3.39,9.24,9.24,0,0,1,4.47-1.13,7.81,7.81,0,0,1,4.38,1.26,7.46,7.46,0,0,1,2.82,3.37,17.83,17.83,0,0,1,.91,6.62v11.33h-2.83v-10.5a26.37,26.37,0,0,0-.3-5.08,5.77,5.77,0,0,0-1.91-3.29,5.67,5.67,0,0,0-3.63-1.1,7,7,0,0,0-4.6,1.7,8,8,0,0,0-2.68,4.21,29,29,0,0,0-.41,6v8.07h-2.83V162.92h0Zm-2.52,10.9-1.82,1.89a6.53,6.53,0,0,0-4.43-2.21,3.34,3.34,0,0,0-2.35.91,2.82,2.82,0,0,0-1,2.13,3.16,3.16,0,0,0,.81,2,11.44,11.44,0,0,0,3.4,2.33,12.57,12.57,0,0,1,4.29,3.16,5.72,5.72,0,0,1,1.12,3.46,6.22,6.22,0,0,1-1.91,4.59,6.49,6.49,0,0,1-4.75,1.88,8.3,8.3,0,0,1-3.63-.83,8,8,0,0,1-2.87-2.29l1.78-2a6.18,6.18,0,0,0,4.59,2.44,4.11,4.11,0,0,0,2.89-1.09,3.37,3.37,0,0,0,1.19-2.57,3.28,3.28,0,0,0-.79-2.16,12.61,12.61,0,0,0-3.56-2.35,11.46,11.46,0,0,1-4-3,5.73,5.73,0,0,1-1.07-3.42,5.56,5.56,0,0,1,1.71-4.16,6,6,0,0,1,4.32-1.66q3,0,6.11,3h0Zm-17.91-2.41h2.85v22h-2.85v-22h0Zm1.42-9.06a2.35,2.35,0,0,1,2.34,2.35,2.23,2.23,0,0,1-.68,1.64,2.32,2.32,0,0,1-3.3,0,2.23,2.23,0,0,1-.68-1.64,2.35,2.35,0,0,1,2.33-2.35h0Zm-3.6.57v2.77a7.09,7.09,0,0,0-2.67-.66,2.6,2.6,0,0,0-1.37.33,1.47,1.47,0,0,0-.69.77,10.43,10.43,0,0,0-.15,2.32v3h4.6v2.43h-4.61v19.58h-2.84V173.84h-2.89v-2.43h2.89V168a9.35,9.35,0,0,1,.44-3.38,3.53,3.53,0,0,1,1.48-1.63,4.9,4.9,0,0,1,2.52-.61A11.92,11.92,0,0,1,278.11,162.92Z" transform="translate(-40.08 -149.25)"/></svg>